<svg xmlns="http://www.w3.org/2000/svg" viewBox="0 0 476.24 185.52"><defs><style>.cls-1{fill:#fff;}</style></defs><title>okay-white-logo</title><g id="Calque_2" data-name="Calque 2"><g id="Calque_1-2" data-name="Calque 1"><path class="cls-1" d="M103.08,19.87a57.44,57.44,0,0,1,23.6,23.79q8.4,15.57,8.41,37.16,0,21-8.6,37.26a62.28,62.28,0,0,1-24,25.22q-15.38,9-35.06,9-20.25,0-35.44-8.22a57.37,57.37,0,0,1-23.6-23.79Q0,104.7,0,83.11q0-21,8.6-37.26a62.3,62.3,0,0,1,24-25.22q15.38-9,35.06-9Q87.88,11.65,103.08,19.87ZM48.34,23.6q-8,8.5-12.32,23.79t-4.3,35q0,19.87,4.87,35t13.18,23.31q8.31,8.22,18.44,8.21,10.51,0,18.53-8.5t12.32-23.79q4.3-15.28,4.3-35,0-19.87-4.87-35T85.31,23.31Q77,15.1,66.87,15.09,56.36,15.09,48.34,23.6Z"/><path class="cls-1" d="M241.8,142.43a10.58,10.58,0,0,0,5,3.15v4q-15.29-.76-20.06-.76-6.3,0-24.65.76v-4a7.89,7.89,0,0,0,4.2-1A3,3,0,0,0,207.8,142a7.35,7.35,0,0,0-1-2.87l-18.91-34.2a11.42,11.42,0,0,0-4-4.39A14.85,14.85,0,0,0,178.56,99v32.86q0,7.84,2.48,10.79t9,3v4q-19.11-.76-24.84-.76-6.5,0-26.37.76v-4q6.69,0,9.46-3t2.77-10.79V22.93q0-8.79-2.77-12.8t-9.46-4v-4q6.11.57,11.85.57,16.62,0,27.89-2.67V95.34a23.32,23.32,0,0,0,6.59-1.53A13.65,13.65,0,0,0,190,90.37l14.52-14.14q6.3-6.31,6.3-11.65a7.93,7.93,0,0,0-4-7q-4-2.58-10.7-3V50.82q10.51.57,22.35.57,15.86,0,22.35-.57v3.82Q229.57,57.13,217,69.35L204.74,82l32.1,53.69A70.33,70.33,0,0,0,241.8,142.43Z"/><path class="cls-1" d="M260.76,144.63q-6-6.3-6-16.62,0-8.6,4.49-14.23a30.67,30.67,0,0,1,10.89-8.69,161.28,161.28,0,0,1,16.34-6.5Q297,95,301.83,92t4.87-8.12V69q0-8-3.73-12.51T291.42,52q-9.17,0-13.95,4.59a17.77,17.77,0,0,1,8.31,5.73,14.25,14.25,0,0,1,3,9,13,13,0,0,1-4.39,10.32,15.73,15.73,0,0,1-10.7,3.82q-6.69,0-10.32-4.2a15.49,15.49,0,0,1-3.63-10.51,15.55,15.55,0,0,1,2.58-9.08,25.58,25.58,0,0,1,7.93-7,44.13,44.13,0,0,1,12.71-4.78,74.37,74.37,0,0,1,16.53-1.72,61.2,61.2,0,0,1,16.24,1.91,25.54,25.54,0,0,1,11.46,6.5,21.09,21.09,0,0,1,5.64,10.32,76.12,76.12,0,0,1,1.43,16.62v52a17.32,17.32,0,0,0,.86,6.5,3.31,3.31,0,0,0,3.34,1.91q2.87,0,6.88-3.25l1.91,3.25q-8.6,7.07-21,7.07-10.51,0-14.71-4.2t-4.39-11.27q-9.56,15.47-28.09,15.48Q266.77,150.94,260.76,144.63Zm46-13.76V91.71q-2.29,3.82-9.74,8.41a46.44,46.44,0,0,0-11.27,9.55q-3.82,4.78-3.82,13.76,0,7.84,3.25,11.56a10.84,10.84,0,0,0,8.6,3.73Q301.17,138.71,306.71,130.88Z"/><path class="cls-1" d="M441.46,50.82v3.82a14.65,14.65,0,0,0-7.16,4.87q-3.15,3.73-6,11.56l-34.2,96.1q-3.82,9.93-8.41,13.57-5.54,4.77-16.62,4.78a27.1,27.1,0,0,1-14.42-3.92,12.55,12.55,0,0,1-6.4-11.37,11.72,11.72,0,0,1,4.2-9.46q4.2-3.54,11.08-3.53,6.49,0,10.41,3.15a10.76,10.76,0,0,1,3.92,8.88,12.08,12.08,0,0,1-2.48,7.36,15.18,15.18,0,0,1-7.07,5.06,35.31,35.31,0,0,0,4.39.19q11.84,0,17.39-15.09l3.06-9.17-40.5-92.09q-3.06-6.49-5.92-8.6a9.9,9.9,0,0,0-5.92-2.1v-4Q353.38,52,366.95,52q11.27,0,26.56-1.15v4a35.14,35.14,0,0,0-9.08.86q-3,.86-3,4.49a14.76,14.76,0,0,0,1.34,5.35l23.31,56.36L419.3,85.21q3.05-9,3.06-15.28,0-13.94-14.14-15.28V50.82q9,.57,18.53.57A142.53,142.53,0,0,0,441.46,50.82Z"/><path class="cls-1" d="M471.84,126.77q4.39,3.92,4.39,10.79t-4.39,10.79q-4.4,3.91-11.85,3.92t-11.85-3.92q-4.4-3.91-4.39-10.79t4.39-10.79q4.39-3.91,11.85-3.92T471.84,126.77Z"/></g></g></svg>